<svg xmlns="http://www.w3.org/2000/svg" viewBox="0 0 132.56 66.04"><g id="Layer_2" data-name="Layer 2"><g id="Layer_1-2" data-name="Layer 1"><path d="M106.56,7.25h-9a25.87,25.87,0,0,0-17.12,6.44A63.76,63.76,0,0,1,44.62,29.56l-9,.86-4.53.29,28.41-28L61.38,0H51.45L28.79,22.27c-2.88,2.89-3.89,7.38-4.15,8.78l-3.21-3.11a2,2,0,0,1-.61-1.65l.2-2.15a2.38,2.38,0,0,0-.69-1.89L0,1.92v11.8L14.28,28.1a2.38,2.38,0,0,0,1.68.69h1.9a2,2,0,0,1,1.42.58L23,33l-3.76,3.65a2.07,2.07,0,0,1-1.42.57H16a2.35,2.35,0,0,0-1.68.7L0,52.32v11.8L20.33,43.78A2.35,2.35,0,0,0,21,41.9l-.2-2.16a2,2,0,0,1,.61-1.64L24.64,35h0c.26,1.39,1.27,5.89,4.15,8.78L51.45,66h9.93l-1.87-2.69-28.41-28,4.53.3,8.41.8a64.2,64.2,0,0,1,36.3,16.3,25.82,25.82,0,0,0,17.22,6.53h9a26,26,0,0,0,26-26h0A26,26,0,0,0,106.56,7.25Z"/></g></g></svg>